<?xml version="1.0" standalone="yes"?>
<svg width="608px" height="733px" viewBox="0 0 608 733" version="1.1" xmlns="http://www.w3.org/2000/svg" xmlns:xlink="http://www.w3.org/1999/xlink">
	<defs>
		<rect id="path-1" x="0" y="0" width="600" height="725" rx="40"></rect>
		<filter x="-1.2%" y="-0.7%" width="102.3%" height="101.9%" filterUnits="objectBoundingBox" id="filter-2">
			<feOffset dx="0" dy="2" in="SourceAlpha" result="shadowOffsetOuter1"></feOffset>
			<feMorphology radius="4" operator="erode" in="SourceAlpha" result="shadowInner"></feMorphology>
			<feOffset dx="0" dy="2" in="shadowInner" result="shadowInner"></feOffset>
			<feComposite in="shadowOffsetOuter1" in2="shadowInner" operator="out" result="shadowOffsetOuter1"></feComposite>
			<feGaussianBlur stdDeviation="2" in="shadowOffsetOuter1" result="shadowBlurOuter1"></feGaussianBlur>
			<feColorMatrix values="0 0 0 0 0   0 0 0 0 0   0 0 0 0 0  0 0 0 0.5 0" type="matrix" in="shadowBlurOuter1"></feColorMatrix>
		</filter>
		<path d="M1,196.5 L259,196.5" id="path-3"></path>
		<filter x="-4.1%" y="-900.0%" width="108.1%" height="2100.0%" filterUnits="objectBoundingBox" id="filter-4">
			<feMorphology radius="7" operator="dilate" in="SourceAlpha" result="shadowSpreadOuter1"></feMorphology>
			<feOffset dx="0" dy="1" in="shadowSpreadOuter1" result="shadowOffsetOuter1"></feOffset>
			<feMorphology radius="7" operator="erode" in="SourceAlpha" result="shadowInner"></feMorphology>
			<feOffset dx="0" dy="1" in="shadowInner" result="shadowInner"></feOffset>
			<feComposite in="shadowOffsetOuter1" in2="shadowInner" operator="out" result="shadowOffsetOuter1"></feComposite>
			<feGaussianBlur stdDeviation="1" in="shadowOffsetOuter1" result="shadowBlurOuter1"></feGaussianBlur>
			<feColorMatrix values="0 0 0 0 0   0 0 0 0 0   0 0 0 0 0  0 0 0 0.5 0" type="matrix" in="shadowBlurOuter1"></feColorMatrix>
		</filter>
		<path d="M1,157.5 L517,157.5" id="path-5"></path>
		<filter x="-2.0%" y="-900.0%" width="104.1%" height="2100.0%" filterUnits="objectBoundingBox" id="filter-6">
			<feMorphology radius="7" operator="dilate" in="SourceAlpha" result="shadowSpreadOuter1"></feMorphology>
			<feOffset dx="0" dy="1" in="shadowSpreadOuter1" result="shadowOffsetOuter1"></feOffset>
			<feMorphology radius="7" operator="erode" in="SourceAlpha" result="shadowInner"></feMorphology>
			<feOffset dx="0" dy="1" in="shadowInner" result="shadowInner"></feOffset>
			<feComposite in="shadowOffsetOuter1" in2="shadowInner" operator="out" result="shadowOffsetOuter1"></feComposite>
			<feGaussianBlur stdDeviation="1" in="shadowOffsetOuter1" result="shadowBlurOuter1"></feGaussianBlur>
			<feColorMatrix values="0 0 0 0 0   0 0 0 0 0   0 0 0 0 0  0 0 0 0.5 0" type="matrix" in="shadowBlurOuter1"></feColorMatrix>
		</filter>
		<path d="M1,118.5 L517,118.5" id="path-7"></path>
		<filter x="-2.0%" y="-900.0%" width="104.1%" height="2100.0%" filterUnits="objectBoundingBox" id="filter-8">
			<feMorphology radius="7" operator="dilate" in="SourceAlpha" result="shadowSpreadOuter1"></feMorphology>
			<feOffset dx="0" dy="1" in="shadowSpreadOuter1" result="shadowOffsetOuter1"></feOffset>
			<feMorphology radius="7" operator="erode" in="SourceAlpha" result="shadowInner"></feMorphology>
			<feOffset dx="0" dy="1" in="shadowInner" result="shadowInner"></feOffset>
			<feComposite in="shadowOffsetOuter1" in2="shadowInner" operator="out" result="shadowOffsetOuter1"></feComposite>
			<feGaussianBlur stdDeviation="1" in="shadowOffsetOuter1" result="shadowBlurOuter1"></feGaussianBlur>
			<feColorMatrix values="0 0 0 0 0   0 0 0 0 0   0 0 0 0 0  0 0 0 0.5 0" type="matrix" in="shadowBlurOuter1"></feColorMatrix>
		</filter>
		<path d="M1,79 L517,79" id="path-9"></path>
		<filter x="-2.0%" y="-900.0%" width="104.1%" height="2100.0%" filterUnits="objectBoundingBox" id="filter-10">
			<feMorphology radius="7" operator="dilate" in="SourceAlpha" result="shadowSpreadOuter1"></feMorphology>
			<feOffset dx="0" dy="1" in="shadowSpreadOuter1" result="shadowOffsetOuter1"></feOffset>
			<feMorphology radius="7" operator="erode" in="SourceAlpha" result="shadowInner"></feMorphology>
			<feOffset dx="0" dy="1" in="shadowInner" result="shadowInner"></feOffset>
			<feComposite in="shadowOffsetOuter1" in2="shadowInner" operator="out" result="shadowOffsetOuter1"></feComposite>
			<feGaussianBlur stdDeviation="1" in="shadowOffsetOuter1" result="shadowBlurOuter1"></feGaussianBlur>
			<feColorMatrix values="0 0 0 0 0   0 0 0 0 0   0 0 0 0 0  0 0 0 0.5 0" type="matrix" in="shadowBlurOuter1"></feColorMatrix>
		</filter>
		<path d="M0,40 L516,40" id="path-11"></path>
		<filter x="-2.0%" y="-900.0%" width="104.1%" height="2100.0%" filterUnits="objectBoundingBox" id="filter-12">
			<feMorphology radius="7" operator="dilate" in="SourceAlpha" result="shadowSpreadOuter1"></feMorphology>
			<feOffset dx="0" dy="1" in="shadowSpreadOuter1" result="shadowOffsetOuter1"></feOffset>
			<feMorphology radius="7" operator="erode" in="SourceAlpha" result="shadowInner"></feMorphology>
			<feOffset dx="0" dy="1" in="shadowInner" result="shadowInner"></feOffset>
			<feComposite in="shadowOffsetOuter1" in2="shadowInner" operator="out" result="shadowOffsetOuter1"></feComposite>
			<feGaussianBlur stdDeviation="1" in="shadowOffsetOuter1" result="shadowBlurOuter1"></feGaussianBlur>
			<feColorMatrix values="0 0 0 0 0   0 0 0 0 0   0 0 0 0 0  0 0 0 0.5 0" type="matrix" in="shadowBlurOuter1"></feColorMatrix>
		</filter>
		<path d="M1,1 L517,1" id="path-13"></path>
		<filter x="-2.0%" y="-900.0%" width="104.1%" height="2100.0%" filterUnits="objectBoundingBox" id="filter-14">
			<feMorphology radius="7" operator="dilate" in="SourceAlpha" result="shadowSpreadOuter1"></feMorphology>
			<feOffset dx="0" dy="1" in="shadowSpreadOuter1" result="shadowOffsetOuter1"></feOffset>
			<feMorphology radius="7" operator="erode" in="SourceAlpha" result="shadowInner"></feMorphology>
			<feOffset dx="0" dy="1" in="shadowInner" result="shadowInner"></feOffset>
			<feComposite in="shadowOffsetOuter1" in2="shadowInner" operator="out" result="shadowOffsetOuter1"></feComposite>
			<feGaussianBlur stdDeviation="1" in="shadowOffsetOuter1" result="shadowBlurOuter1"></feGaussianBlur>
			<feColorMatrix values="0 0 0 0 0   0 0 0 0 0   0 0 0 0 0  0 0 0 0.5 0" type="matrix" in="shadowBlurOuter1"></feColorMatrix>
		</filter>
		<filter x="-2.3%" y="-5.2%" width="104.6%" height="110.7%" filterUnits="objectBoundingBox" id="filter-15">
			<feOffset dx="0" dy="2" in="SourceAlpha" result="shadowOffsetOuter1"></feOffset>
			<feGaussianBlur stdDeviation="2" in="shadowOffsetOuter1" result="shadowBlurOuter1"></feGaussianBlur>
			<feColorMatrix values="0 0 0 0 0   0 0 0 0 0   0 0 0 0 0  0 0 0 0.5 0" type="matrix" in="shadowBlurOuter1" result="shadowMatrixOuter1"></feColorMatrix>
			<feMerge>
				<feMergeNode in="shadowMatrixOuter1"></feMergeNode>
				<feMergeNode in="SourceGraphic"></feMergeNode>
			</feMerge>
		</filter>
		<rect id="path-16" x="0" y="0" width="118" height="56"></rect>
		<filter x="-5.9%" y="-8.9%" width="111.9%" height="125.0%" filterUnits="objectBoundingBox" id="filter-17">
			<feOffset dx="0" dy="2" in="SourceAlpha" result="shadowOffsetOuter1"></feOffset>
			<feGaussianBlur stdDeviation="2" in="shadowOffsetOuter1" result="shadowBlurOuter1"></feGaussianBlur>
			<feComposite in="shadowBlurOuter1" in2="SourceAlpha" operator="out" result="shadowBlurOuter1"></feComposite>
			<feColorMatrix values="0 0 0 0 0   0 0 0 0 0   0 0 0 0 0  0 0 0 0.5 0" type="matrix" in="shadowBlurOuter1"></feColorMatrix>
		</filter>
		<rect id="path-18" x="0" y="0" width="134" height="56"></rect>
		<filter x="-5.2%" y="-8.9%" width="110.4%" height="125.0%" filterUnits="objectBoundingBox" id="filter-19">
			<feOffset dx="0" dy="2" in="SourceAlpha" result="shadowOffsetOuter1"></feOffset>
			<feGaussianBlur stdDeviation="2" in="shadowOffsetOuter1" result="shadowBlurOuter1"></feGaussianBlur>
			<feComposite in="shadowBlurOuter1" in2="SourceAlpha" operator="out" result="shadowBlurOuter1"></feComposite>
			<feColorMatrix values="0 0 0 0 0   0 0 0 0 0   0 0 0 0 0  0 0 0 0.5 0" type="matrix" in="shadowBlurOuter1"></feColorMatrix>
		</filter>
		<path d="M23.2963867,42 L23.2963867,11.4716797 L29.5112305,11.4716797 L29.5112305,36.8139648 L44.9643555,36.8139648 L44.9643555,42 L23.2963867,42 Z M48.3525391,16.6787109 L48.3525391,11.2197266 L54.2524414,11.2197266 L54.2524414,16.6787109 L48.3525391,16.6787109 Z M48.3525391,42 L48.3525391,19.7021484 L54.2524414,19.7021484 L54.2524414,42 L48.3525391,42 Z M79.581543,42 L73.6816406,42 L73.6816406,30.6201172 C73.6816406,28.2125531 73.5556653,26.6553584 73.3037109,25.9484863 C73.0517566,25.2416143 72.6423368,24.692222 72.0754395,24.300293 C71.5085421,23.9083639 70.8261759,23.7124023 70.0283203,23.7124023 C69.0065053,23.7124023 68.089685,23.9923475 67.277832,24.5522461 C66.465979,25.1121447 65.9095881,25.8539993 65.6086426,26.777832 C65.3076971,27.7016648 65.1572266,29.40933 65.1572266,31.9008789 L65.1572266,42 L59.2573242,42 L59.2573242,19.7021484 L64.7373047,19.7021484 L64.7373047,22.9775391 C66.6829524,20.4579952 69.1324722,19.1982422 72.0859375,19.1982422 C73.3877018,19.1982422 74.5774686,19.4326962 75.6552734,19.9016113 C76.7330783,20.3705264 77.5484185,20.9689091 78.1013184,21.6967773 C78.6542183,22.4246456 79.0391428,23.2504837 79.2561035,24.1743164 C79.4730642,25.0981492 79.581543,26.4208898 79.581543,28.1425781 L79.581543,42 Z M84.3554688,42 L84.3554688,11.2197266 L90.2553711,11.2197266 L90.2553711,27.5546875 L97.1630859,19.7021484 L104.427734,19.7021484 L96.8061523,27.8486328 L104.973633,42 L98.6118164,42 L93.0058594,31.9848633 L90.2553711,34.8613281 L90.2553711,42 L84.3554688,42 Z" id="path-20"></path>
		<filter x="-6.1%" y="-16.2%" width="117.1%" height="145.5%" filterUnits="objectBoundingBox" id="filter-21">
			<feOffset dx="2" dy="2" in="SourceAlpha" result="shadowOffsetOuter1"></feOffset>
			<feGaussianBlur stdDeviation="2" in="shadowOffsetOuter1" result="shadowBlurOuter1"></feGaussianBlur>
			<feColorMatrix values="0 0 0 0 0   0 0 0 0 0   0 0 0 0 0  0 0 0 0.5 0" type="matrix" in="shadowBlurOuter1"></feColorMatrix>
		</filter>
		<rect id="path-22" x="0" y="0" width="134" height="56"></rect>
		<filter x="-5.2%" y="-8.9%" width="110.4%" height="125.0%" filterUnits="objectBoundingBox" id="filter-23">
			<feOffset dx="0" dy="2" in="SourceAlpha" result="shadowOffsetOuter1"></feOffset>
			<feGaussianBlur stdDeviation="2" in="shadowOffsetOuter1" result="shadowBlurOuter1"></feGaussianBlur>
			<feComposite in="shadowBlurOuter1" in2="SourceAlpha" operator="out" result="shadowBlurOuter1"></feComposite>
			<feColorMatrix values="0 0 0 0 0   0 0 0 0 0   0 0 0 0 0  0 0 0 0.5 0" type="matrix" in="shadowBlurOuter1"></feColorMatrix>
		</filter>
		<path d="M23.2963867,42 L23.2963867,11.4716797 L29.5112305,11.4716797 L29.5112305,36.8139648 L44.9643555,36.8139648 L44.9643555,42 L23.2963867,42 Z M48.3525391,16.6787109 L48.3525391,11.2197266 L54.2524414,11.2197266 L54.2524414,16.6787109 L48.3525391,16.6787109 Z M48.3525391,42 L48.3525391,19.7021484 L54.2524414,19.7021484 L54.2524414,42 L48.3525391,42 Z M79.581543,42 L73.6816406,42 L73.6816406,30.6201172 C73.6816406,28.2125531 73.5556653,26.6553584 73.3037109,25.9484863 C73.0517566,25.2416143 72.6423368,24.692222 72.0754395,24.300293 C71.5085421,23.9083639 70.8261759,23.7124023 70.0283203,23.7124023 C69.0065053,23.7124023 68.089685,23.9923475 67.277832,24.5522461 C66.465979,25.1121447 65.9095881,25.8539993 65.6086426,26.777832 C65.3076971,27.7016648 65.1572266,29.40933 65.1572266,31.9008789 L65.1572266,42 L59.2573242,42 L59.2573242,19.7021484 L64.7373047,19.7021484 L64.7373047,22.9775391 C66.6829524,20.4579952 69.1324722,19.1982422 72.0859375,19.1982422 C73.3877018,19.1982422 74.5774686,19.4326962 75.6552734,19.9016113 C76.7330783,20.3705264 77.5484185,20.9689091 78.1013184,21.6967773 C78.6542183,22.4246456 79.0391428,23.2504837 79.2561035,24.1743164 C79.4730642,25.0981492 79.581543,26.4208898 79.581543,28.1425781 L79.581543,42 Z M84.3554688,42 L84.3554688,11.2197266 L90.2553711,11.2197266 L90.2553711,27.5546875 L97.1630859,19.7021484 L104.427734,19.7021484 L96.8061523,27.8486328 L104.973633,42 L98.6118164,42 L93.0058594,31.9848633 L90.2553711,34.8613281 L90.2553711,42 L84.3554688,42 Z" id="path-24"></path>
		<filter x="-6.1%" y="-16.2%" width="117.1%" height="145.5%" filterUnits="objectBoundingBox" id="filter-25">
			<feOffset dx="2" dy="2" in="SourceAlpha" result="shadowOffsetOuter1"></feOffset>
			<feGaussianBlur stdDeviation="2" in="shadowOffsetOuter1" result="shadowBlurOuter1"></feGaussianBlur>
			<feColorMatrix values="0 0 0 0 0   0 0 0 0 0   0 0 0 0 0  0 0 0 0.5 0" type="matrix" in="shadowBlurOuter1"></feColorMatrix>
		</filter>
		<rect id="path-26" x="0" y="0" width="134" height="56"></rect>
		<filter x="-5.2%" y="-8.9%" width="110.4%" height="125.0%" filterUnits="objectBoundingBox" id="filter-27">
			<feOffset dx="0" dy="2" in="SourceAlpha" result="shadowOffsetOuter1"></feOffset>
			<feGaussianBlur stdDeviation="2" in="shadowOffsetOuter1" result="shadowBlurOuter1"></feGaussianBlur>
			<feComposite in="shadowBlurOuter1" in2="SourceAlpha" operator="out" result="shadowBlurOuter1"></feComposite>
			<feColorMatrix values="0 0 0 0 0   0 0 0 0 0   0 0 0 0 0  0 0 0 0.5 0" type="matrix" in="shadowBlurOuter1"></feColorMatrix>
		</filter>
		<path d="M23.2963867,42 L23.2963867,11.4716797 L29.5112305,11.4716797 L29.5112305,36.8139648 L44.9643555,36.8139648 L44.9643555,42 L23.2963867,42 Z M48.3525391,16.6787109 L48.3525391,11.2197266 L54.2524414,11.2197266 L54.2524414,16.6787109 L48.3525391,16.6787109 Z M48.3525391,42 L48.3525391,19.7021484 L54.2524414,19.7021484 L54.2524414,42 L48.3525391,42 Z M79.581543,42 L73.6816406,42 L73.6816406,30.6201172 C73.6816406,28.2125531 73.5556653,26.6553584 73.3037109,25.9484863 C73.0517566,25.2416143 72.6423368,24.692222 72.0754395,24.300293 C71.5085421,23.9083639 70.8261759,23.7124023 70.0283203,23.7124023 C69.0065053,23.7124023 68.089685,23.9923475 67.277832,24.5522461 C66.465979,25.1121447 65.9095881,25.8539993 65.6086426,26.777832 C65.3076971,27.7016648 65.1572266,29.40933 65.1572266,31.9008789 L65.1572266,42 L59.2573242,42 L59.2573242,19.7021484 L64.7373047,19.7021484 L64.7373047,22.9775391 C66.6829524,20.4579952 69.1324722,19.1982422 72.0859375,19.1982422 C73.3877018,19.1982422 74.5774686,19.4326962 75.6552734,19.9016113 C76.7330783,20.3705264 77.5484185,20.9689091 78.1013184,21.6967773 C78.6542183,22.4246456 79.0391428,23.2504837 79.2561035,24.1743164 C79.4730642,25.0981492 79.581543,26.4208898 79.581543,28.1425781 L79.581543,42 Z M84.3554688,42 L84.3554688,11.2197266 L90.2553711,11.2197266 L90.2553711,27.5546875 L97.1630859,19.7021484 L104.427734,19.7021484 L96.8061523,27.8486328 L104.973633,42 L98.6118164,42 L93.0058594,31.9848633 L90.2553711,34.8613281 L90.2553711,42 L84.3554688,42 Z" id="path-28"></path>
		<filter x="-6.1%" y="-16.2%" width="117.1%" height="145.5%" filterUnits="objectBoundingBox" id="filter-29">
			<feOffset dx="2" dy="2" in="SourceAlpha" result="shadowOffsetOuter1"></feOffset>
			<feGaussianBlur stdDeviation="2" in="shadowOffsetOuter1" result="shadowBlurOuter1"></feGaussianBlur>
			<feColorMatrix values="0 0 0 0 0   0 0 0 0 0   0 0 0 0 0  0 0 0 0.5 0" type="matrix" in="shadowBlurOuter1"></feColorMatrix>
		</filter>
		<path d="M58.546875,62.2734375 L48.46875,62.2734375 L47.0820312,67 L38.0390625,67 L48.8007812,38.3671875 L58.4492188,38.3671875 L69.2109375,67 L59.953125,67 L58.546875,62.2734375 Z M56.6914062,56.0820312 L53.5273438,45.7890625 L50.3828125,56.0820312 L56.6914062,56.0820312 Z M94.3828125,55.3007812 L102.136719,57.6445312 C101.615883,59.8190213 100.795579,61.6354094 99.6757812,63.09375 C98.555984,64.5520906 97.1660239,65.65234 95.5058594,66.3945312 C93.8456948,67.1367225 91.7330857,67.5078125 89.1679688,67.5078125 C86.055974,67.5078125 83.5136817,67.0553431 81.5410156,66.1503906 C79.5683495,65.2454382 77.8658926,63.6536572 76.4335938,61.375 C75.0012949,59.0963428 74.2851562,56.1797053 74.2851562,52.625 C74.2851562,47.885393 75.5449093,44.2428513 78.0644531,41.6972656 C80.583997,39.15168 84.1484145,37.8789062 88.7578125,37.8789062 C92.3646014,37.8789062 95.1998595,38.6080656 97.2636719,40.0664062 C99.3274843,41.5247469 100.860672,43.7643078 101.863281,46.7851562 L94.0507812,48.5234375 C93.7773424,47.6510373 93.4908869,47.0130229 93.1914062,46.609375 C92.6966121,45.9322883 92.0911494,45.4114602 91.375,45.046875 C90.6588506,44.6822898 89.8580773,44.5 88.9726562,44.5 C86.9674379,44.5 85.4309949,45.3072836 84.3632812,46.921875 C83.5559855,48.1197977 83.1523438,50.0012893 83.1523438,52.5664062 C83.1523438,55.7435055 83.6341098,57.9212181 84.5976562,59.0996094 C85.5612027,60.2780007 86.9153559,60.8671875 88.6601562,60.8671875 C90.352873,60.8671875 91.6321571,60.3919318 92.4980469,59.4414062 C93.3639366,58.4908807 93.9921855,57.1106861 94.3828125,55.3007812 Z M110.335938,38.3671875 L121.976562,38.3671875 L126.46875,55.7890625 L130.941406,38.3671875 L142.542969,38.3671875 L142.542969,67 L135.316406,67 L135.316406,45.1640625 L129.710938,67 L123.167969,67 L117.582031,45.1640625 L117.582031,67 L110.335938,67 L110.335938,38.3671875 Z M152.167969,38.3671875 L175.878906,38.3671875 L175.878906,44.4804688 L161.035156,44.4804688 L161.035156,49.03125 L174.804688,49.03125 L174.804688,54.8710938 L161.035156,54.8710938 L161.035156,60.515625 L176.308594,60.515625 L176.308594,67 L152.167969,67 L152.167969,38.3671875 Z" id="path-30"></path>
		<filter x="-5.1%" y="-16.9%" width="110.1%" height="147.3%" filterUnits="objectBoundingBox" id="filter-31">
			<feOffset dx="0" dy="2" in="SourceAlpha" result="shadowOffsetOuter1"></feOffset>
			<feGaussianBlur stdDeviation="2" in="shadowOffsetOuter1" result="shadowBlurOuter1"></feGaussianBlur>
			<feColorMatrix values="0 0 0 0 0   0 0 0 0 0   0 0 0 0 0  0 0 0 0.5 0" type="matrix" in="shadowBlurOuter1"></feColorMatrix>
		</filter>
	</defs>
	<g id="Page-1" stroke="none" stroke-width="1" fill="none" fill-rule="evenodd">
		<g id="Group-Logo" transform="translate(4.000000, 2.000000)">
			<g id="Group-Left">
				<g id="Outline">
					<use fill="black" fill-opacity="1" filter="url(#filter-2)" xlink:href="#path-1"></use>
					<rect stroke="#979797" stroke-width="4" stroke-linejoin="square" x="2" y="2" width="596" height="721" rx="40"></rect>
				</g>
				<g id="TextBox" transform="translate(41.000000, 483.000000)" stroke-linecap="round">
					<g id="Line6">
						<use fill="black" fill-opacity="1" filter="url(#filter-4)" xlink:href="#path-3"></use>
						<use stroke="#BFBFBF" stroke-width="14" xlink:href="#path-3"></use>
					</g>
					<g id="Line5">
						<use fill="black" fill-opacity="1" filter="url(#filter-6)" xlink:href="#path-5"></use>
						<use stroke="#BFBFBF" stroke-width="14" xlink:href="#path-5"></use>
					</g>
					<g id="Line4">
						<use fill="black" fill-opacity="1" filter="url(#filter-8)" xlink:href="#path-7"></use>
						<use stroke="#BFBFBF" stroke-width="14" xlink:href="#path-7"></use>
					</g>
					<g id="Line3">
						<use fill="black" fill-opacity="1" filter="url(#filter-10)" xlink:href="#path-9"></use>
						<use stroke="#BFBFBF" stroke-width="14" xlink:href="#path-9"></use>
					</g>
					<g id="Line2">
						<use fill="black" fill-opacity="1" filter="url(#filter-12)" xlink:href="#path-11"></use>
						<use stroke="#BFBFBF" stroke-width="14" xlink:href="#path-11"></use>
					</g>
					<g id="Line1">
						<use fill="black" fill-opacity="1" filter="url(#filter-14)" xlink:href="#path-13"></use>
						<use stroke="#BFBFBF" stroke-width="14" xlink:href="#path-13"></use>
					</g>
				</g>
				<g id="Image" filter="url(#filter-15)" transform="translate(39.000000, 191.000000)" stroke="#979797">
					<rect id="Back" fill="#BFBFBF" x="0.5" y="0.5" width="517" height="232" rx="20"></rect>
					<path d="M321.914063,145.749917 C269.455729,223.57023 229.901042,233.524657 203.25,175.613199 C176.598958,117.70174 116.848958,136.749917 24,232.75773 L494.546875,232.75773 C428.421875,86.5962715 370.877604,57.5936673 321.914063,145.749917 Z" id="Mountains" fill="#9B9B9B"></path>
					<circle id="Sun" fill="#9B9B9B" cx="208" cy="68" r="41"></circle>
				</g>
				<g id="Menu" transform="translate(38.000000, 102.000000)">
					<g id="Menu4" transform="translate(402.000000, 0.000000)">
						<g id="Rectangle4">
							<use fill="black" fill-opacity="1" filter="url(#filter-17)" xlink:href="#path-16"></use>
							<rect stroke="#4A4A4A" stroke-width="2" stroke-linejoin="square" fill="#676767" fill-rule="evenodd" x="1" y="1" width="116" height="54"></rect>
						</g>
					</g>
					<g id="Menu3" transform="translate(268.000000, 0.000000)">
						<g id="Rectangle3">
							<use fill="black" fill-opacity="1" filter="url(#filter-19)" xlink:href="#path-18"></use>
							<rect stroke="#505050" stroke-width="2" stroke-linejoin="square" fill="#676767" fill-rule="evenodd" x="1" y="1" width="132" height="54"></rect>
						</g>
						<g id="Link3">
							<use fill="black" fill-opacity="1" filter="url(#filter-21)" xlink:href="#path-20"></use>
							<use fill="#FFFFFF" fill-rule="evenodd" xlink:href="#path-20"></use>
						</g>
					</g>
					<g id="Menu2" transform="translate(134.000000, 0.000000)">
						<g id="Rectangle2">
							<use fill="black" fill-opacity="1" filter="url(#filter-23)" xlink:href="#path-22"></use>
							<rect stroke="#505050" stroke-width="2" stroke-linejoin="square" fill="#676767" fill-rule="evenodd" x="1" y="1" width="132" height="54"></rect>
						</g>
						<g id="Link2">
							<use fill="black" fill-opacity="1" filter="url(#filter-25)" xlink:href="#path-24"></use>
							<use fill="#FFFFFF" fill-rule="evenodd" xlink:href="#path-24"></use>
						</g>
					</g>
					<g id="Menu1">
						<g id="Rectangle1">
							<use fill="black" fill-opacity="1" filter="url(#filter-27)" xlink:href="#path-26"></use>
							<rect stroke="#505050" stroke-width="2" stroke-linejoin="square" fill="#4C4C4C" fill-rule="evenodd" x="1" y="1" width="132" height="54"></rect>
						</g>
						<g id="Link1">
							<use fill="black" fill-opacity="1" filter="url(#filter-29)" xlink:href="#path-28"></use>
							<use fill="#FFFFFF" fill-rule="evenodd" xlink:href="#path-28"></use>
						</g>
					</g>
				</g>
				<g id="Logo">
					<use fill="black" fill-opacity="1" filter="url(#filter-31)" xlink:href="#path-30"></use>
					<use fill="#BEBEBE" fill-rule="evenodd" xlink:href="#path-30"></use>
				</g>
			</g>
		</g>
	</g>
</svg>
