<svg width="608" height="733" xmlns="http://www.w3.org/2000/svg" xmlns:xlink="http://www.w3.org/1999/xlink"><defs><rect id="b" x="0" y="0" width="600" height="725" rx="40"/><filter x="-1.2%" y="-.7%" width="102.3%" height="101.9%" filterUnits="objectBoundingBox" id="a"><feOffset dy="2" in="SourceAlpha" result="shadowOffsetOuter1"/><feMorphology radius="4" in="SourceAlpha" result="shadowInner"/><feOffset dy="2" in="shadowInner" result="shadowInner"/><feComposite in="shadowOffsetOuter1" in2="shadowInner" operator="out" result="shadowOffsetOuter1"/><feGaussianBlur stdDeviation="2" in="shadowOffsetOuter1" result="shadowBlurOuter1"/><feColorMatrix values="0 0 0 0 0 0 0 0 0 0 0 0 0 0 0 0 0 0 0.5 0" in="shadowBlurOuter1"/></filter><rect id="d" x="114" y="0" width="92" height="209" rx="10"/><filter x="-3.8%" y="-1.2%" width="107.6%" height="103.3%" filterUnits="objectBoundingBox" id="c"><feOffset dy="1" in="SourceAlpha" result="shadowOffsetOuter1"/><feMorphology radius="10" in="SourceAlpha" result="shadowInner"/><feOffset dy="1" in="shadowInner" result="shadowInner"/><feComposite in="shadowOffsetOuter1" in2="shadowInner" operator="out" result="shadowOffsetOuter1"/><feGaussianBlur stdDeviation="1" in="shadowOffsetOuter1" result="shadowBlurOuter1"/><feColorMatrix values="0 0 0 0 0 0 0 0 0 0 0 0 0 0 0 0 0 0 0.5 0" in="shadowBlurOuter1"/></filter><rect id="f" x="0" y="0" width="92" height="209" rx="10"/><filter x="-3.8%" y="-1.2%" width="107.6%" height="103.3%" filterUnits="objectBoundingBox" id="e"><feOffset dy="1" in="SourceAlpha" result="shadowOffsetOuter1"/><feMorphology radius="10" in="SourceAlpha" result="shadowInner"/><feOffset dy="1" in="shadowInner" result="shadowInner"/><feComposite in="shadowOffsetOuter1" in2="shadowInner" operator="out" result="shadowOffsetOuter1"/><feGaussianBlur stdDeviation="1" in="shadowOffsetOuter1" result="shadowBlurOuter1"/><feColorMatrix values="0 0 0 0 0 0 0 0 0 0 0 0 0 0 0 0 0 0 0.5 0" in="shadowBlurOuter1"/></filter><path d="M1 196.5h142" id="h"/><filter x="-7.4%" y="-900%" width="114.8%" height="2100%" filterUnits="objectBoundingBox" id="g"><feMorphology radius="7" operator="dilate" in="SourceAlpha" result="shadowSpreadOuter1"/><feOffset dy="1" in="shadowSpreadOuter1" result="shadowOffsetOuter1"/><feMorphology radius="7" in="SourceAlpha" result="shadowInner"/><feOffset dy="1" in="shadowInner" result="shadowInner"/><feComposite in="shadowOffsetOuter1" in2="shadowInner" operator="out" result="shadowOffsetOuter1"/><feGaussianBlur stdDeviation="1" in="shadowOffsetOuter1" result="shadowBlurOuter1"/><feColorMatrix values="0 0 0 0 0 0 0 0 0 0 0 0 0 0 0 0 0 0 0.5 0" in="shadowBlurOuter1"/></filter><path d="M1 157.5h283" id="j"/><filter x="-3.7%" y="-900%" width="107.4%" height="2100%" filterUnits="objectBoundingBox" id="i"><feMorphology radius="7" operator="dilate" in="SourceAlpha" result="shadowSpreadOuter1"/><feOffset dy="1" in="shadowSpreadOuter1" result="shadowOffsetOuter1"/><feMorphology radius="7" in="SourceAlpha" result="shadowInner"/><feOffset dy="1" in="shadowInner" result="shadowInner"/><feComposite in="shadowOffsetOuter1" in2="shadowInner" operator="out" result="shadowOffsetOuter1"/><feGaussianBlur stdDeviation="1" in="shadowOffsetOuter1" result="shadowBlurOuter1"/><feColorMatrix values="0 0 0 0 0 0 0 0 0 0 0 0 0 0 0 0 0 0 0.5 0" in="shadowBlurOuter1"/></filter><path d="M1 118.5h283" id="l"/><filter x="-3.7%" y="-900%" width="107.4%" height="2100%" filterUnits="objectBoundingBox" id="k"><feMorphology radius="7" operator="dilate" in="SourceAlpha" result="shadowSpreadOuter1"/><feOffset dy="1" in="shadowSpreadOuter1" result="shadowOffsetOuter1"/><feMorphology radius="7" in="SourceAlpha" result="shadowInner"/><feOffset dy="1" in="shadowInner" result="shadowInner"/><feComposite in="shadowOffsetOuter1" in2="shadowInner" operator="out" result="shadowOffsetOuter1"/><feGaussianBlur stdDeviation="1" in="shadowOffsetOuter1" result="shadowBlurOuter1"/><feColorMatrix values="0 0 0 0 0 0 0 0 0 0 0 0 0 0 0 0 0 0 0.5 0" in="shadowBlurOuter1"/></filter><path d="M.55 79H284" id="n"/><filter x="-3.7%" y="-900%" width="107.4%" height="2100%" filterUnits="objectBoundingBox" id="m"><feMorphology radius="7" operator="dilate" in="SourceAlpha" result="shadowSpreadOuter1"/><feOffset dy="1" in="shadowSpreadOuter1" result="shadowOffsetOuter1"/><feMorphology radius="7" in="SourceAlpha" result="shadowInner"/><feOffset dy="1" in="shadowInner" result="shadowInner"/><feComposite in="shadowOffsetOuter1" in2="shadowInner" operator="out" result="shadowOffsetOuter1"/><feGaussianBlur stdDeviation="1" in="shadowOffsetOuter1" result="shadowBlurOuter1"/><feColorMatrix values="0 0 0 0 0 0 0 0 0 0 0 0 0 0 0 0 0 0 0.5 0" in="shadowBlurOuter1"/></filter><path d="M0 40h283.45" id="p"/><filter x="-3.7%" y="-900%" width="107.4%" height="2100%" filterUnits="objectBoundingBox" id="o"><feMorphology radius="7" operator="dilate" in="SourceAlpha" result="shadowSpreadOuter1"/><feOffset dy="1" in="shadowSpreadOuter1" result="shadowOffsetOuter1"/><feMorphology radius="7" in="SourceAlpha" result="shadowInner"/><feOffset dy="1" in="shadowInner" result="shadowInner"/><feComposite in="shadowOffsetOuter1" in2="shadowInner" operator="out" result="shadowOffsetOuter1"/><feGaussianBlur stdDeviation="1" in="shadowOffsetOuter1" result="shadowBlurOuter1"/><feColorMatrix values="0 0 0 0 0 0 0 0 0 0 0 0 0 0 0 0 0 0 0.5 0" in="shadowBlurOuter1"/></filter><path d="M.55 1H284" id="r"/><filter x="-3.7%" y="-900%" width="107.4%" height="2100%" filterUnits="objectBoundingBox" id="q"><feMorphology radius="7" operator="dilate" in="SourceAlpha" result="shadowSpreadOuter1"/><feOffset dy="1" in="shadowSpreadOuter1" result="shadowOffsetOuter1"/><feMorphology radius="7" in="SourceAlpha" result="shadowInner"/><feOffset dy="1" in="shadowInner" result="shadowInner"/><feComposite in="shadowOffsetOuter1" in2="shadowInner" operator="out" result="shadowOffsetOuter1"/><feGaussianBlur stdDeviation="1" in="shadowOffsetOuter1" result="shadowBlurOuter1"/><feColorMatrix values="0 0 0 0 0 0 0 0 0 0 0 0 0 0 0 0 0 0 0.5 0" in="shadowBlurOuter1"/></filter><filter x="-2.3%" y="-5.2%" width="104.6%" height="110.7%" filterUnits="objectBoundingBox" id="s"><feOffset dy="2" in="SourceAlpha" result="shadowOffsetOuter1"/><feGaussianBlur stdDeviation="2" in="shadowOffsetOuter1" result="shadowBlurOuter1"/><feColorMatrix values="0 0 0 0 0 0 0 0 0 0 0 0 0 0 0 0 0 0 0.5 0" in="shadowBlurOuter1" result="shadowMatrixOuter1"/><feMerge><feMergeNode in="shadowMatrixOuter1"/><feMergeNode in="SourceGraphic"/></feMerge></filter><path id="u" d="M0 0h118v56H0z"/><filter x="-5.9%" y="-8.9%" width="111.9%" height="125%" filterUnits="objectBoundingBox" id="t"><feOffset dy="2" in="SourceAlpha" result="shadowOffsetOuter1"/><feGaussianBlur stdDeviation="2" in="shadowOffsetOuter1" result="shadowBlurOuter1"/><feComposite in="shadowBlurOuter1" in2="SourceAlpha" operator="out" result="shadowBlurOuter1"/><feColorMatrix values="0 0 0 0 0 0 0 0 0 0 0 0 0 0 0 0 0 0 0.5 0" in="shadowBlurOuter1"/></filter><path id="w" d="M0 0h134v56H0z"/><filter x="-5.2%" y="-8.9%" width="110.4%" height="125%" filterUnits="objectBoundingBox" id="v"><feOffset dy="2" in="SourceAlpha" result="shadowOffsetOuter1"/><feGaussianBlur stdDeviation="2" in="shadowOffsetOuter1" result="shadowBlurOuter1"/><feComposite in="shadowBlurOuter1" in2="SourceAlpha" operator="out" result="shadowBlurOuter1"/><feColorMatrix values="0 0 0 0 0 0 0 0 0 0 0 0 0 0 0 0 0 0 0.5 0" in="shadowBlurOuter1"/></filter><text id="y" font-family="Arial-BoldMT, Arial" font-size="43" font-weight="bold" letter-spacing="-1" fill="#FFF"><tspan x="20" y="42">Lin</tspan> <tspan x="81.479" y="42">k</tspan></text><filter x="-5.8%" y="-10.4%" width="116.3%" height="129.2%" filterUnits="objectBoundingBox" id="x"><feOffset dx="2" dy="2" in="SourceAlpha" result="shadowOffsetOuter1"/><feGaussianBlur stdDeviation="2" in="shadowOffsetOuter1" result="shadowBlurOuter1"/><feColorMatrix values="0 0 0 0 0 0 0 0 0 0 0 0 0 0 0 0 0 0 0.5 0" in="shadowBlurOuter1"/></filter><path id="A" d="M0 0h134v56H0z"/><filter x="-5.2%" y="-8.9%" width="110.4%" height="125%" filterUnits="objectBoundingBox" id="z"><feOffset dy="2" in="SourceAlpha" result="shadowOffsetOuter1"/><feGaussianBlur stdDeviation="2" in="shadowOffsetOuter1" result="shadowBlurOuter1"/><feComposite in="shadowBlurOuter1" in2="SourceAlpha" operator="out" result="shadowBlurOuter1"/><feColorMatrix values="0 0 0 0 0 0 0 0 0 0 0 0 0 0 0 0 0 0 0.5 0" in="shadowBlurOuter1"/></filter><text id="C" font-family="Arial-BoldMT, Arial" font-size="43" font-weight="bold" letter-spacing="-1" fill="#FFF"><tspan x="20" y="42">Lin</tspan> <tspan x="81.479" y="42">k</tspan></text><filter x="-5.8%" y="-10.4%" width="116.3%" height="129.2%" filterUnits="objectBoundingBox" id="B"><feOffset dx="2" dy="2" in="SourceAlpha" result="shadowOffsetOuter1"/><feGaussianBlur stdDeviation="2" in="shadowOffsetOuter1" result="shadowBlurOuter1"/><feColorMatrix values="0 0 0 0 0 0 0 0 0 0 0 0 0 0 0 0 0 0 0.5 0" in="shadowBlurOuter1"/></filter><path id="E" d="M0 0h134v56H0z"/><filter x="-5.2%" y="-8.9%" width="110.4%" height="125%" filterUnits="objectBoundingBox" id="D"><feOffset dy="2" in="SourceAlpha" result="shadowOffsetOuter1"/><feGaussianBlur stdDeviation="2" in="shadowOffsetOuter1" result="shadowBlurOuter1"/><feComposite in="shadowBlurOuter1" in2="SourceAlpha" operator="out" result="shadowBlurOuter1"/><feColorMatrix values="0 0 0 0 0 0 0 0 0 0 0 0 0 0 0 0 0 0 0.5 0" in="shadowBlurOuter1"/></filter><text id="G" font-family="Arial-BoldMT, Arial" font-size="43" font-weight="bold" letter-spacing="-1" fill="#FFF"><tspan x="20" y="42">Lin</tspan> <tspan x="81.479" y="42">k</tspan></text><filter x="-5.8%" y="-10.4%" width="116.3%" height="129.2%" filterUnits="objectBoundingBox" id="F"><feOffset dx="2" dy="2" in="SourceAlpha" result="shadowOffsetOuter1"/><feGaussianBlur stdDeviation="2" in="shadowOffsetOuter1" result="shadowBlurOuter1"/><feColorMatrix values="0 0 0 0 0 0 0 0 0 0 0 0 0 0 0 0 0 0 0.5 0" in="shadowBlurOuter1"/></filter><path d="M58.547 62.273H48.469L47.082 67h-9.043l10.762-28.633h9.648L69.211 67h-9.258l-1.406-4.727zm-1.856-6.191l-3.164-10.293-3.144 10.293h6.308zm37.692-.781l7.754 2.344c-.521 2.174-1.341 3.99-2.461 5.449a10.68 10.68 0 0 1-4.17 3.3c-1.66.743-3.773 1.114-6.338 1.114-3.112 0-5.654-.453-7.627-1.358-1.973-.905-3.675-2.496-5.107-4.775-1.433-2.279-2.149-5.195-2.149-8.75 0-4.74 1.26-8.382 3.78-10.928 2.519-2.545 6.083-3.818 10.693-3.818 3.607 0 6.442.73 8.506 2.187 2.063 1.459 3.597 3.698 4.6 6.72l-7.813 1.737c-.274-.872-.56-1.51-.86-1.914a5.09 5.09 0 0 0-1.816-1.562c-.716-.365-1.517-.547-2.402-.547-2.006 0-3.542.807-4.61 2.422-.807 1.198-1.21 3.08-1.21 5.644 0 3.178.481 5.355 1.445 6.534.963 1.178 2.317 1.767 4.062 1.767 1.693 0 2.972-.475 3.838-1.426.866-.95 1.494-2.33 1.885-4.14zm15.953-16.934h11.64l4.493 17.422 4.472-17.422h11.602V67h-7.227V45.164L129.711 67h-6.543l-5.586-21.836V67h-7.246V38.367zm41.832 0h23.71v6.113h-14.843v4.551h13.77v5.84h-13.77v5.645h15.274V67h-24.141V38.367z" id="I"/><filter x="-5.1%" y="-16.9%" width="110.1%" height="147.3%" filterUnits="objectBoundingBox" id="H"><feOffset dy="2" in="SourceAlpha" result="shadowOffsetOuter1"/><feGaussianBlur stdDeviation="2" in="shadowOffsetOuter1" result="shadowBlurOuter1"/><feColorMatrix values="0 0 0 0 0 0 0 0 0 0 0 0 0 0 0 0 0 0 0.5 0" in="shadowBlurOuter1"/></filter></defs><g fill="none" fill-rule="evenodd"><g transform="translate(4 2)"><use fill="#000" filter="url(#a)" xlink:href="#b"/><rect stroke="#979797" stroke-width="4" stroke-linejoin="square" x="2" y="2" width="596" height="721" rx="40"/></g><g transform="translate(42 479)"><use fill="#000" filter="url(#c)" xlink:href="#d"/><rect stroke="#BFBFBF" stroke-width="10" stroke-linejoin="square" x="119" y="5" width="82" height="199" rx="10"/></g><g transform="translate(42 479)"><use fill="#000" filter="url(#e)" xlink:href="#f"/><rect stroke="#BFBFBF" stroke-width="10" stroke-linejoin="square" x="5" y="5" width="82" height="199" rx="10"/></g><g stroke-linecap="round"><g transform="translate(278 485)"><use fill="#000" filter="url(#g)" xlink:href="#h"/><use stroke="#BFBFBF" stroke-width="14" xlink:href="#h"/></g><g transform="translate(278 485)"><use fill="#000" filter="url(#i)" xlink:href="#j"/><use stroke="#BFBFBF" stroke-width="14" xlink:href="#j"/></g><g transform="translate(278 485)"><use fill="#000" filter="url(#k)" xlink:href="#l"/><use stroke="#BFBFBF" stroke-width="14" xlink:href="#l"/></g><g transform="translate(278 485)"><use fill="#000" filter="url(#m)" xlink:href="#n"/><use stroke="#BFBFBF" stroke-width="14" xlink:href="#n"/></g><g transform="translate(278 485)"><use fill="#000" filter="url(#o)" xlink:href="#p"/><use stroke="#BFBFBF" stroke-width="14" xlink:href="#p"/></g><g transform="translate(278 485)"><use fill="#000" filter="url(#q)" xlink:href="#r"/><use stroke="#BFBFBF" stroke-width="14" xlink:href="#r"/></g></g><g filter="url(#s)" transform="translate(43 193)" stroke="#979797"><rect fill="#BFBFBF" x=".5" y=".5" width="517" height="232" rx="20"/><path d="M321.914 145.75c-52.458 77.82-92.013 87.775-118.664 29.863-26.651-57.911-86.401-38.863-179.25 57.145h470.547C428.422 86.596 370.877 57.594 321.914 145.75z" fill="#9B9B9B"/><circle fill="#9B9B9B" cx="208" cy="68" r="41"/></g><g transform="translate(444 104)"><use fill="#000" filter="url(#t)" xlink:href="#u"/><path stroke="#4A4A4A" stroke-width="2" stroke-linejoin="square" fill="#676767" d="M1 1h116v54H1z"/></g><g transform="translate(310 104)"><use fill="#000" filter="url(#v)" xlink:href="#w"/><path stroke="#505050" stroke-width="2" stroke-linejoin="square" fill="#676767" d="M1 1h132v54H1z"/></g><g fill="#FFF" transform="translate(310 104)"><use filter="url(#x)" xlink:href="#y"/><use xlink:href="#y"/></g><g transform="translate(176 104)"><use fill="#000" filter="url(#z)" xlink:href="#A"/><path stroke="#505050" stroke-width="2" stroke-linejoin="square" fill="#676767" d="M1 1h132v54H1z"/></g><g fill="#FFF" transform="translate(176 104)"><use filter="url(#B)" xlink:href="#C"/><use xlink:href="#C"/></g><g transform="translate(42 104)"><use fill="#000" filter="url(#D)" xlink:href="#E"/><path stroke="#505050" stroke-width="2" stroke-linejoin="square" fill="#4C4C4C" d="M1 1h132v54H1z"/></g><g fill="#FFF" transform="translate(42 104)"><use filter="url(#F)" xlink:href="#G"/><use xlink:href="#G"/></g><g transform="translate(4 2)"><use fill="#000" filter="url(#H)" xlink:href="#I"/><use fill="#BEBEBE" xlink:href="#I"/></g></g></svg>