<svg width="608" height="733" xmlns="http://www.w3.org/2000/svg" xmlns:xlink="http://www.w3.org/1999/xlink"><defs><rect id="b" x="0" y="0" width="600" height="725" rx="40"/><filter x="-1.2%" y="-.7%" width="102.3%" height="101.9%" filterUnits="objectBoundingBox" id="a"><feOffset dy="2" in="SourceAlpha" result="shadowOffsetOuter1"/><feMorphology radius="4" in="SourceAlpha" result="shadowInner"/><feOffset dy="2" in="shadowInner" result="shadowInner"/><feComposite in="shadowOffsetOuter1" in2="shadowInner" operator="out" result="shadowOffsetOuter1"/><feGaussianBlur stdDeviation="2" in="shadowOffsetOuter1" result="shadowBlurOuter1"/><feColorMatrix values="0 0 0 0 0 0 0 0 0 0 0 0 0 0 0 0 0 0 0.5 0" in="shadowBlurOuter1"/></filter><path d="M1 196.5h258" id="d"/><filter x="-4.1%" y="-900%" width="108.1%" height="2100%" filterUnits="objectBoundingBox" id="c"><feMorphology radius="7" operator="dilate" in="SourceAlpha" result="shadowSpreadOuter1"/><feOffset dy="1" in="shadowSpreadOuter1" result="shadowOffsetOuter1"/><feMorphology radius="7" in="SourceAlpha" result="shadowInner"/><feOffset dy="1" in="shadowInner" result="shadowInner"/><feComposite in="shadowOffsetOuter1" in2="shadowInner" operator="out" result="shadowOffsetOuter1"/><feGaussianBlur stdDeviation="1" in="shadowOffsetOuter1" result="shadowBlurOuter1"/><feColorMatrix values="0 0 0 0 0 0 0 0 0 0 0 0 0 0 0 0 0 0 0.5 0" in="shadowBlurOuter1"/></filter><path d="M1 157.5h516" id="f"/><filter x="-2%" y="-900%" width="104.1%" height="2100%" filterUnits="objectBoundingBox" id="e"><feMorphology radius="7" operator="dilate" in="SourceAlpha" result="shadowSpreadOuter1"/><feOffset dy="1" in="shadowSpreadOuter1" result="shadowOffsetOuter1"/><feMorphology radius="7" in="SourceAlpha" result="shadowInner"/><feOffset dy="1" in="shadowInner" result="shadowInner"/><feComposite in="shadowOffsetOuter1" in2="shadowInner" operator="out" result="shadowOffsetOuter1"/><feGaussianBlur stdDeviation="1" in="shadowOffsetOuter1" result="shadowBlurOuter1"/><feColorMatrix values="0 0 0 0 0 0 0 0 0 0 0 0 0 0 0 0 0 0 0.5 0" in="shadowBlurOuter1"/></filter><path d="M1 118.5h516" id="h"/><filter x="-2%" y="-900%" width="104.1%" height="2100%" filterUnits="objectBoundingBox" id="g"><feMorphology radius="7" operator="dilate" in="SourceAlpha" result="shadowSpreadOuter1"/><feOffset dy="1" in="shadowSpreadOuter1" result="shadowOffsetOuter1"/><feMorphology radius="7" in="SourceAlpha" result="shadowInner"/><feOffset dy="1" in="shadowInner" result="shadowInner"/><feComposite in="shadowOffsetOuter1" in2="shadowInner" operator="out" result="shadowOffsetOuter1"/><feGaussianBlur stdDeviation="1" in="shadowOffsetOuter1" result="shadowBlurOuter1"/><feColorMatrix values="0 0 0 0 0 0 0 0 0 0 0 0 0 0 0 0 0 0 0.5 0" in="shadowBlurOuter1"/></filter><path d="M1 79h516" id="j"/><filter x="-2%" y="-900%" width="104.1%" height="2100%" filterUnits="objectBoundingBox" id="i"><feMorphology radius="7" operator="dilate" in="SourceAlpha" result="shadowSpreadOuter1"/><feOffset dy="1" in="shadowSpreadOuter1" result="shadowOffsetOuter1"/><feMorphology radius="7" in="SourceAlpha" result="shadowInner"/><feOffset dy="1" in="shadowInner" result="shadowInner"/><feComposite in="shadowOffsetOuter1" in2="shadowInner" operator="out" result="shadowOffsetOuter1"/><feGaussianBlur stdDeviation="1" in="shadowOffsetOuter1" result="shadowBlurOuter1"/><feColorMatrix values="0 0 0 0 0 0 0 0 0 0 0 0 0 0 0 0 0 0 0.5 0" in="shadowBlurOuter1"/></filter><path d="M0 40h516" id="l"/><filter x="-2%" y="-900%" width="104.1%" height="2100%" filterUnits="objectBoundingBox" id="k"><feMorphology radius="7" operator="dilate" in="SourceAlpha" result="shadowSpreadOuter1"/><feOffset dy="1" in="shadowSpreadOuter1" result="shadowOffsetOuter1"/><feMorphology radius="7" in="SourceAlpha" result="shadowInner"/><feOffset dy="1" in="shadowInner" result="shadowInner"/><feComposite in="shadowOffsetOuter1" in2="shadowInner" operator="out" result="shadowOffsetOuter1"/><feGaussianBlur stdDeviation="1" in="shadowOffsetOuter1" result="shadowBlurOuter1"/><feColorMatrix values="0 0 0 0 0 0 0 0 0 0 0 0 0 0 0 0 0 0 0.5 0" in="shadowBlurOuter1"/></filter><path d="M1 1h516" id="n"/><filter x="-2%" y="-900%" width="104.1%" height="2100%" filterUnits="objectBoundingBox" id="m"><feMorphology radius="7" operator="dilate" in="SourceAlpha" result="shadowSpreadOuter1"/><feOffset dy="1" in="shadowSpreadOuter1" result="shadowOffsetOuter1"/><feMorphology radius="7" in="SourceAlpha" result="shadowInner"/><feOffset dy="1" in="shadowInner" result="shadowInner"/><feComposite in="shadowOffsetOuter1" in2="shadowInner" operator="out" result="shadowOffsetOuter1"/><feGaussianBlur stdDeviation="1" in="shadowOffsetOuter1" result="shadowBlurOuter1"/><feColorMatrix values="0 0 0 0 0 0 0 0 0 0 0 0 0 0 0 0 0 0 0.5 0" in="shadowBlurOuter1"/></filter><filter x="-2.3%" y="-5.2%" width="104.6%" height="110.7%" filterUnits="objectBoundingBox" id="o"><feOffset dy="2" in="SourceAlpha" result="shadowOffsetOuter1"/><feGaussianBlur stdDeviation="2" in="shadowOffsetOuter1" result="shadowBlurOuter1"/><feColorMatrix values="0 0 0 0 0 0 0 0 0 0 0 0 0 0 0 0 0 0 0.5 0" in="shadowBlurOuter1" result="shadowMatrixOuter1"/><feMerge><feMergeNode in="shadowMatrixOuter1"/><feMergeNode in="SourceGraphic"/></feMerge></filter><path id="q" d="M0 0h118v56H0z"/><filter x="-5.9%" y="-8.9%" width="111.9%" height="125%" filterUnits="objectBoundingBox" id="p"><feOffset dy="2" in="SourceAlpha" result="shadowOffsetOuter1"/><feGaussianBlur stdDeviation="2" in="shadowOffsetOuter1" result="shadowBlurOuter1"/><feComposite in="shadowBlurOuter1" in2="SourceAlpha" operator="out" result="shadowBlurOuter1"/><feColorMatrix values="0 0 0 0 0 0 0 0 0 0 0 0 0 0 0 0 0 0 0.5 0" in="shadowBlurOuter1"/></filter><path id="s" d="M0 0h134v56H0z"/><filter x="-5.2%" y="-8.9%" width="110.4%" height="125%" filterUnits="objectBoundingBox" id="r"><feOffset dy="2" in="SourceAlpha" result="shadowOffsetOuter1"/><feGaussianBlur stdDeviation="2" in="shadowOffsetOuter1" result="shadowBlurOuter1"/><feComposite in="shadowBlurOuter1" in2="SourceAlpha" operator="out" result="shadowBlurOuter1"/><feColorMatrix values="0 0 0 0 0 0 0 0 0 0 0 0 0 0 0 0 0 0 0.5 0" in="shadowBlurOuter1"/></filter><path d="M23.296 42V11.472h6.215v25.342h15.453V42H23.296zm25.057-25.321v-5.46h5.9v5.46h-5.9zm0 25.321V19.702h5.9V42h-5.9zm31.229 0h-5.9V30.62c0-2.407-.126-3.965-.378-4.672-.252-.706-.662-1.256-1.229-1.648-.566-.392-1.249-.588-2.047-.588-1.021 0-1.938.28-2.75.84a4.231 4.231 0 0 0-1.67 2.226c-.3.924-.45 2.631-.45 5.123V42h-5.9V19.702h5.48v3.276c1.945-2.52 4.394-3.78 7.348-3.78 1.302 0 2.491.235 3.57.704 1.077.469 1.892 1.067 2.445 1.795a6.503 6.503 0 0 1 1.155 2.477c.217.924.326 2.247.326 3.969V42zm4.773 0V11.22h5.9v16.335l6.908-7.853h7.265l-7.622 8.147L104.974 42h-6.362l-5.606-10.015-2.75 2.876V42h-5.9z" id="u"/><filter x="-6.1%" y="-16.2%" width="117.1%" height="145.5%" filterUnits="objectBoundingBox" id="t"><feOffset dx="2" dy="2" in="SourceAlpha" result="shadowOffsetOuter1"/><feGaussianBlur stdDeviation="2" in="shadowOffsetOuter1" result="shadowBlurOuter1"/><feColorMatrix values="0 0 0 0 0 0 0 0 0 0 0 0 0 0 0 0 0 0 0.5 0" in="shadowBlurOuter1"/></filter><path id="w" d="M0 0h134v56H0z"/><filter x="-5.2%" y="-8.9%" width="110.4%" height="125%" filterUnits="objectBoundingBox" id="v"><feOffset dy="2" in="SourceAlpha" result="shadowOffsetOuter1"/><feGaussianBlur stdDeviation="2" in="shadowOffsetOuter1" result="shadowBlurOuter1"/><feComposite in="shadowBlurOuter1" in2="SourceAlpha" operator="out" result="shadowBlurOuter1"/><feColorMatrix values="0 0 0 0 0 0 0 0 0 0 0 0 0 0 0 0 0 0 0.5 0" in="shadowBlurOuter1"/></filter><path d="M23.296 42V11.472h6.215v25.342h15.453V42H23.296zm25.057-25.321v-5.46h5.9v5.46h-5.9zm0 25.321V19.702h5.9V42h-5.9zm31.229 0h-5.9V30.62c0-2.407-.126-3.965-.378-4.672-.252-.706-.662-1.256-1.229-1.648-.566-.392-1.249-.588-2.047-.588-1.021 0-1.938.28-2.75.84a4.231 4.231 0 0 0-1.67 2.226c-.3.924-.45 2.631-.45 5.123V42h-5.9V19.702h5.48v3.276c1.945-2.52 4.394-3.78 7.348-3.78 1.302 0 2.491.235 3.57.704 1.077.469 1.892 1.067 2.445 1.795a6.503 6.503 0 0 1 1.155 2.477c.217.924.326 2.247.326 3.969V42zm4.773 0V11.22h5.9v16.335l6.908-7.853h7.265l-7.622 8.147L104.974 42h-6.362l-5.606-10.015-2.75 2.876V42h-5.9z" id="y"/><filter x="-6.1%" y="-16.2%" width="117.1%" height="145.5%" filterUnits="objectBoundingBox" id="x"><feOffset dx="2" dy="2" in="SourceAlpha" result="shadowOffsetOuter1"/><feGaussianBlur stdDeviation="2" in="shadowOffsetOuter1" result="shadowBlurOuter1"/><feColorMatrix values="0 0 0 0 0 0 0 0 0 0 0 0 0 0 0 0 0 0 0.5 0" in="shadowBlurOuter1"/></filter><path id="A" d="M0 0h134v56H0z"/><filter x="-5.2%" y="-8.9%" width="110.4%" height="125%" filterUnits="objectBoundingBox" id="z"><feOffset dy="2" in="SourceAlpha" result="shadowOffsetOuter1"/><feGaussianBlur stdDeviation="2" in="shadowOffsetOuter1" result="shadowBlurOuter1"/><feComposite in="shadowBlurOuter1" in2="SourceAlpha" operator="out" result="shadowBlurOuter1"/><feColorMatrix values="0 0 0 0 0 0 0 0 0 0 0 0 0 0 0 0 0 0 0.5 0" in="shadowBlurOuter1"/></filter><path d="M23.296 42V11.472h6.215v25.342h15.453V42H23.296zm25.057-25.321v-5.46h5.9v5.46h-5.9zm0 25.321V19.702h5.9V42h-5.9zm31.229 0h-5.9V30.62c0-2.407-.126-3.965-.378-4.672-.252-.706-.662-1.256-1.229-1.648-.566-.392-1.249-.588-2.047-.588-1.021 0-1.938.28-2.75.84a4.231 4.231 0 0 0-1.67 2.226c-.3.924-.45 2.631-.45 5.123V42h-5.9V19.702h5.48v3.276c1.945-2.52 4.394-3.78 7.348-3.78 1.302 0 2.491.235 3.57.704 1.077.469 1.892 1.067 2.445 1.795a6.503 6.503 0 0 1 1.155 2.477c.217.924.326 2.247.326 3.969V42zm4.773 0V11.22h5.9v16.335l6.908-7.853h7.265l-7.622 8.147L104.974 42h-6.362l-5.606-10.015-2.75 2.876V42h-5.9z" id="C"/><filter x="-6.1%" y="-16.2%" width="117.1%" height="145.5%" filterUnits="objectBoundingBox" id="B"><feOffset dx="2" dy="2" in="SourceAlpha" result="shadowOffsetOuter1"/><feGaussianBlur stdDeviation="2" in="shadowOffsetOuter1" result="shadowBlurOuter1"/><feColorMatrix values="0 0 0 0 0 0 0 0 0 0 0 0 0 0 0 0 0 0 0.5 0" in="shadowBlurOuter1"/></filter><path d="M58.547 62.273H48.469L47.082 67h-9.043l10.762-28.633h9.648L69.211 67h-9.258l-1.406-4.727zm-1.856-6.191l-3.164-10.293-3.144 10.293h6.308zm37.692-.781l7.754 2.344c-.521 2.174-1.341 3.99-2.461 5.449a10.68 10.68 0 0 1-4.17 3.3c-1.66.743-3.773 1.114-6.338 1.114-3.112 0-5.654-.453-7.627-1.358-1.973-.905-3.675-2.496-5.107-4.775-1.433-2.279-2.149-5.195-2.149-8.75 0-4.74 1.26-8.382 3.78-10.928 2.519-2.545 6.083-3.818 10.693-3.818 3.607 0 6.442.73 8.506 2.187 2.063 1.459 3.597 3.698 4.6 6.72l-7.813 1.737c-.274-.872-.56-1.51-.86-1.914a5.09 5.09 0 0 0-1.816-1.562c-.716-.365-1.517-.547-2.402-.547-2.006 0-3.542.807-4.61 2.422-.807 1.198-1.21 3.08-1.21 5.644 0 3.178.481 5.355 1.445 6.534.963 1.178 2.317 1.767 4.062 1.767 1.693 0 2.972-.475 3.838-1.426.866-.95 1.494-2.33 1.885-4.14zm15.953-16.934h11.64l4.493 17.422 4.472-17.422h11.602V67h-7.227V45.164L129.711 67h-6.543l-5.586-21.836V67h-7.246V38.367zm41.832 0h23.71v6.113h-14.843v4.551h13.77v5.84h-13.77v5.645h15.274V67h-24.141V38.367z" id="E"/><filter x="-5.1%" y="-16.9%" width="110.1%" height="147.3%" filterUnits="objectBoundingBox" id="D"><feOffset dy="2" in="SourceAlpha" result="shadowOffsetOuter1"/><feGaussianBlur stdDeviation="2" in="shadowOffsetOuter1" result="shadowBlurOuter1"/><feColorMatrix values="0 0 0 0 0 0 0 0 0 0 0 0 0 0 0 0 0 0 0.5 0" in="shadowBlurOuter1"/></filter></defs><g fill="none" fill-rule="evenodd"><g transform="translate(4 2)"><use fill="#000" filter="url(#a)" xlink:href="#b"/><rect stroke="#979797" stroke-width="4" stroke-linejoin="square" x="2" y="2" width="596" height="721" rx="40"/></g><g stroke-linecap="round"><g transform="translate(45 485)"><use fill="#000" filter="url(#c)" xlink:href="#d"/><use stroke="#BFBFBF" stroke-width="14" xlink:href="#d"/></g><g transform="translate(45 485)"><use fill="#000" filter="url(#e)" xlink:href="#f"/><use stroke="#BFBFBF" stroke-width="14" xlink:href="#f"/></g><g transform="translate(45 485)"><use fill="#000" filter="url(#g)" xlink:href="#h"/><use stroke="#BFBFBF" stroke-width="14" xlink:href="#h"/></g><g transform="translate(45 485)"><use fill="#000" filter="url(#i)" xlink:href="#j"/><use stroke="#BFBFBF" stroke-width="14" xlink:href="#j"/></g><g transform="translate(45 485)"><use fill="#000" filter="url(#k)" xlink:href="#l"/><use stroke="#BFBFBF" stroke-width="14" xlink:href="#l"/></g><g transform="translate(45 485)"><use fill="#000" filter="url(#m)" xlink:href="#n"/><use stroke="#BFBFBF" stroke-width="14" xlink:href="#n"/></g></g><g filter="url(#o)" transform="translate(43 193)" stroke="#979797"><rect fill="#BFBFBF" x=".5" y=".5" width="517" height="232" rx="20"/><path d="M321.914 145.75c-52.458 77.82-92.013 87.775-118.664 29.863-26.651-57.911-86.401-38.863-179.25 57.145h470.547C428.422 86.596 370.877 57.594 321.914 145.75z" fill="#9B9B9B"/><circle fill="#9B9B9B" cx="208" cy="68" r="41"/></g><g transform="translate(444 104)"><use fill="#000" filter="url(#p)" xlink:href="#q"/><path stroke="#4A4A4A" stroke-width="2" stroke-linejoin="square" fill="#676767" d="M1 1h116v54H1z"/></g><g transform="translate(310 104)"><use fill="#000" filter="url(#r)" xlink:href="#s"/><path stroke="#505050" stroke-width="2" stroke-linejoin="square" fill="#676767" d="M1 1h132v54H1z"/></g><g transform="translate(310 104)"><use fill="#000" filter="url(#t)" xlink:href="#u"/><use fill="#FFF" xlink:href="#u"/></g><g transform="translate(176 104)"><use fill="#000" filter="url(#v)" xlink:href="#w"/><path stroke="#505050" stroke-width="2" stroke-linejoin="square" fill="#676767" d="M1 1h132v54H1z"/></g><g transform="translate(176 104)"><use fill="#000" filter="url(#x)" xlink:href="#y"/><use fill="#FFF" xlink:href="#y"/></g><g transform="translate(42 104)"><use fill="#000" filter="url(#z)" xlink:href="#A"/><path stroke="#505050" stroke-width="2" stroke-linejoin="square" fill="#4C4C4C" d="M1 1h132v54H1z"/></g><g transform="translate(42 104)"><use fill="#000" filter="url(#B)" xlink:href="#C"/><use fill="#FFF" xlink:href="#C"/></g><g transform="translate(4 2)"><use fill="#000" filter="url(#D)" xlink:href="#E"/><use fill="#BEBEBE" xlink:href="#E"/></g></g></svg>